<svg id="SvgjsSvg1001" width="128" height="128" xmlns="http://www.w3.org/2000/svg" version="1.1" xmlns:xlink="http://www.w3.org/1999/xlink" xmlns:svgjs="http://svgjs.com/svgjs"><defs id="SvgjsDefs1002"></defs><g id="SvgjsG1008" transform="matrix(0.916700005531311,0,0,0.916700005531311,11.995200157165527,11.995199203491211)"><svg xmlns="http://www.w3.org/2000/svg" width="128" height="128" enable-background="new 0 0 512.178 512.178" viewBox="0 0 512.178 512.178"><path d="M154.07 36.337h-.478c-11.4 0-20.674 9.274-20.674 20.674v33.234c0 11.399 9.274 20.674 20.674 20.674h.478c11.4 0 20.674-9.274 20.674-20.674v-33.234c0-11.4-9.274-20.674-20.674-20.674zm5.674 53.908c0 3.129-2.545 5.674-5.674 5.674h-.478c-3.129 0-5.674-2.545-5.674-5.674v-33.234c0-3.129 2.545-5.674 5.674-5.674h.478c3.129 0 5.674 2.545 5.674 5.674zM316.286 251.362c0-4.143-3.358-7.5-7.5-7.5h-114.37c-4.142 0-7.5 3.357-7.5 7.5s3.358 7.5 7.5 7.5h114.37c4.142 0 7.5-3.357 7.5-7.5zM65.583 81.225c0-1.475.334-2.88.993-4.177 1.875-3.693.402-8.207-3.291-10.083-3.692-1.875-8.207-.402-10.083 3.29-1.713 3.373-2.619 7.167-2.619 10.97 0 4.036 1.014 8.035 2.932 11.564 1.359 2.502 3.936 3.92 6.597 3.92 1.209 0 2.437-.293 3.574-.911 3.64-1.978 4.986-6.531 3.009-10.171-.737-1.357-1.112-2.838-1.112-4.402zM43.147 50.139c-3.542-2.149-8.155-1.014-10.3 2.53-5.188 8.568-7.931 18.415-7.931 28.478s2.742 19.91 7.93 28.477c1.41 2.329 3.886 3.616 6.423 3.616 1.323 0 2.663-.351 3.877-1.086 3.543-2.146 4.676-6.757 2.531-10.3-3.769-6.224-5.761-13.384-5.761-20.707 0-7.322 1.992-14.483 5.762-20.708 2.145-3.543 1.012-8.155-2.531-10.3z" color="#fff" fill="#878787" class="color000 svgShape"></path><path d="m342.787 151.43c41.749 0 75.714-33.966 75.714-75.715s-33.965-75.715-75.714-75.715-75.714 33.966-75.714 75.715v127.617h-21.968v-127.617c0-41.749-33.965-75.715-75.714-75.715s-75.714 33.966-75.714 75.715 33.965 75.715 75.714 75.715c7.904 0 15.595-1.192 22.978-3.554v6.212c0 4.143 3.358 7.5 7.5 7.5s7.5-3.357 7.5-7.5v-22.675c0-6.787-1.891-13.424-5.469-19.192l-2.326-3.75c-2.183-3.52-6.807-4.604-10.327-2.42s-4.603 6.807-2.42 10.326l2.326 3.75c2.104 3.393 3.216 7.295 3.216 11.286v.483c-7.287 2.997-14.992 4.533-22.978 4.533-33.478 0-60.714-27.236-60.714-60.715s27.236-60.714 60.714-60.714 60.714 27.236 60.714 60.715v127.617h-22.736v-13.91c0-4.143-3.358-7.5-7.5-7.5s-7.5 3.357-7.5 7.5v13.91h-83.141c-7.392 0-13.405 6.014-13.405 13.405v226.22c0 38.168 31.052 69.221 69.22 69.221h102.545c4.142 0 7.5-3.357 7.5-7.5s-3.358-7.5-7.5-7.5h-102.545c-29.897 0-54.22-24.323-54.22-54.221v-224.625h290.532v224.625c0 29.897-24.323 54.221-54.22 54.221h-44.296c-4.142 0-7.5 3.357-7.5 7.5s3.358 7.5 7.5 7.5h44.296c38.168 0 69.22-31.053 69.22-69.221v-226.22c0-7.392-6.013-13.405-13.405-13.405h-83.141v-55.456c7.383 2.361 15.073 3.554 22.978 3.554zm-60.714 51.902v-127.617c0-33.479 27.236-60.715 60.714-60.715s60.714 27.236 60.714 60.715-27.236 60.715-60.714 60.715c-7.985 0-15.691-1.536-22.978-4.533v-.483c0-3.991 1.112-7.894 3.216-11.286l2.326-3.75c2.183-3.52 1.1-8.143-2.42-10.326-3.521-2.185-8.144-1.101-10.327 2.42l-2.326 3.75c-3.578 5.769-5.469 12.405-5.469 19.192v71.919h-22.736z" color="#fff" fill="#878787" class="color000 svgShape"></path><path d="M358.108 110.919h.478c11.4 0 20.674-9.274 20.674-20.674v-33.234c0-11.399-9.274-20.674-20.674-20.674h-.478c-11.4 0-20.674 9.274-20.674 20.674v33.234c0 11.4 9.274 20.674 20.674 20.674zm-5.674-53.908c0-3.129 2.545-5.674 5.674-5.674h.478c3.129 0 5.674 2.545 5.674 5.674v33.234c0 3.129-2.545 5.674-5.674 5.674h-.478c-3.129 0-5.674-2.545-5.674-5.674zM448.892 66.965c-3.693 1.876-5.166 6.39-3.291 10.083.659 1.297.993 2.702.993 4.177 0 1.564-.374 3.045-1.111 4.402-1.978 3.64-.631 8.193 3.009 10.171 1.138.618 2.365.911 3.574.911 2.66 0 5.237-1.418 6.597-3.92 1.918-3.529 2.932-7.528 2.932-11.564 0-3.803-.906-7.597-2.619-10.97-1.877-3.693-6.391-5.165-10.084-3.29zM479.331 52.669c-2.146-3.544-6.758-4.678-10.3-2.53-3.543 2.146-4.676 6.757-2.531 10.3 3.77 6.225 5.762 13.386 5.762 20.708 0 7.323-1.992 14.483-5.761 20.707-2.146 3.543-1.013 8.154 2.531 10.3 1.214.736 2.554 1.086 3.877 1.086 2.537 0 5.013-1.288 6.423-3.616 5.188-8.566 7.93-18.414 7.93-28.477s-2.742-19.91-7.931-28.478z" color="#fff" fill="#878787" class="color000 svgShape"></path></svg></g></svg>
